<svg width="258" height="273" viewBox="0 0 258 273" fill="none" xmlns="http://www.w3.org/2000/svg">
<path d="M54.7033 128.564C52.4234 136.338 52.8015 142.225 55.1285 149.889C56.1652 153.304 56.8393 156.825 56.9992 160.389C57.332 167.811 58.2451 172.865 60.8505 180C70.7574 199.007 77.5551 209.292 88.9976 212.441C94.6379 213.993 100.462 215.177 105.642 217.895C112.018 221.241 117.07 223.185 122.92 225.068C128.098 226.734 133.634 226.846 138.975 225.817C146.824 224.305 153.302 223.436 160.114 222.958C167.07 222.469 173.802 220.148 179.163 215.689C182.392 213.004 185.555 210.428 189.8 207.426C193.091 205.1 196.046 202.31 198.373 199.02L203.799 191.349C207.42 186.229 209.296 180.138 210.096 173.918C211.113 166.003 213.12 158.669 216.299 148.775C217.631 144.629 218.158 140.261 217.777 135.923C217.106 128.267 216.493 121.791 214.851 107.5C213.058 96.1009 211.915 89.4087 210.471 83.8805C209.794 81.2845 208.641 78.839 207.177 76.5901C201.018 67.124 196.241 61.6533 188.776 56.403C185.91 54.3876 182.593 53.1431 179.216 52.2095C169.422 49.5014 162.481 46.0347 153.472 40.729C144.836 35.6434 134.406 34.7471 125.367 39.0768C121.518 40.9204 117.828 42.5431 112.464 44.0763C108.784 45.1279 105.208 46.5712 102.011 48.6739C88.1918 57.7631 79.399 63.8838 71.5395 72.5051C70.0533 74.1354 68.814 75.9774 67.7906 77.9317C60.6455 91.5761 57.4376 101.067 56.917 116.064C56.7698 120.306 55.8981 124.49 54.7033 128.564Z" fill="url(#paint0_linear_106_477)"/>
<path d="M54.7033 128.564C52.4234 136.338 52.8015 142.225 55.1285 149.889C56.1652 153.304 56.8393 156.825 56.9992 160.389C57.332 167.811 58.2451 172.865 60.8505 180C70.7574 199.007 77.5551 209.292 88.9976 212.441C94.6379 213.993 100.462 215.177 105.642 217.895C112.018 221.241 117.07 223.185 122.92 225.068C128.098 226.734 133.634 226.846 138.975 225.817C146.824 224.305 153.302 223.436 160.114 222.958C167.07 222.469 173.802 220.148 179.163 215.689C182.392 213.004 185.555 210.428 189.8 207.426C193.091 205.1 196.046 202.31 198.373 199.02L203.799 191.349C207.42 186.229 209.296 180.138 210.096 173.918C211.113 166.003 213.12 158.669 216.299 148.775C217.631 144.629 218.158 140.261 217.777 135.923C217.106 128.267 216.493 121.791 214.851 107.5C213.058 96.1009 211.915 89.4087 210.471 83.8805C209.794 81.2845 208.641 78.839 207.177 76.5901C201.018 67.124 196.241 61.6533 188.776 56.403C185.91 54.3876 182.593 53.1431 179.216 52.2095C169.422 49.5014 162.481 46.0347 153.472 40.729C144.836 35.6434 134.406 34.7471 125.367 39.0768C121.518 40.9204 117.828 42.5431 112.464 44.0763C108.784 45.1279 105.208 46.5712 102.011 48.6739C88.1918 57.7631 79.399 63.8838 71.5395 72.5051C70.0533 74.1354 68.814 75.9774 67.7906 77.9317C60.6455 91.5761 57.4376 101.067 56.917 116.064C56.7698 120.306 55.8981 124.49 54.7033 128.564Z" fill="url(#paint1_radial_106_477)"/>
<path d="M54.7033 128.564C52.4234 136.338 52.8015 142.225 55.1285 149.889C56.1652 153.304 56.8393 156.825 56.9992 160.389C57.332 167.811 58.2451 172.865 60.8505 180C70.7574 199.007 77.5551 209.292 88.9976 212.441C94.6379 213.993 100.462 215.177 105.642 217.895C112.018 221.241 117.07 223.185 122.92 225.068C128.098 226.734 133.634 226.846 138.975 225.817C146.824 224.305 153.302 223.436 160.114 222.958C167.07 222.469 173.802 220.148 179.163 215.689C182.392 213.004 185.555 210.428 189.8 207.426C193.091 205.1 196.046 202.31 198.373 199.02L203.799 191.349C207.42 186.229 209.296 180.138 210.096 173.918C211.113 166.003 213.12 158.669 216.299 148.775C217.631 144.629 218.158 140.261 217.777 135.923C217.106 128.267 216.493 121.791 214.851 107.5C213.058 96.1009 211.915 89.4087 210.471 83.8805C209.794 81.2845 208.641 78.839 207.177 76.5901C201.018 67.124 196.241 61.6533 188.776 56.403C185.91 54.3876 182.593 53.1431 179.216 52.2095C169.422 49.5014 162.481 46.0347 153.472 40.729C144.836 35.6434 134.406 34.7471 125.367 39.0768C121.518 40.9204 117.828 42.5431 112.464 44.0763C108.784 45.1279 105.208 46.5712 102.011 48.6739C88.1918 57.7631 79.399 63.8838 71.5395 72.5051C70.0533 74.1354 68.814 75.9774 67.7906 77.9317C60.6455 91.5761 57.4376 101.067 56.917 116.064C56.7698 120.306 55.8981 124.49 54.7033 128.564Z" stroke="#97D257"/>
<g filter="url(#filter0_f_106_477)">
<path d="M63.3505 93C63.3505 105 50.3505 133 62.3505 171L66.8505 166.5C64.9834 162.636 57.9157 152.124 57.8505 140.5C66.8505 113.5 65.1536 102.316 63.3505 93Z" fill="#B0D649"/>
</g>
<g filter="url(#filter1_f_106_477)">
<path d="M127.35 43.5C90.9025 55.0607 76.5872 65.5288 63.3505 96C63.3505 96 52.8505 110 74.8505 84.5C96.8505 59 115.671 48.6915 132.35 48.5C147.103 49.9238 154.725 52.25 167.85 57.5C179.423 62.8785 184.376 66.8732 190.851 75.5L199.351 105L202.351 122.5L203.351 142.5C203.351 142.5 205.351 129 205.351 122.5V107.5C207.597 113.049 207.877 117.404 208.793 123.731C208.956 124.859 210.426 124.809 210.534 123.674C212.146 106.735 211.068 96.8884 206.351 82.5C206.351 82.5 197.35 65.5 181.85 57.5C166.35 49.4999 158.35 48.5 158.35 48.5C146.796 40.0378 140.15 37.2688 127.35 43.5Z" fill="#B4DB4E"/>
</g>
<g filter="url(#filter2_df_106_477)">
<path d="M81.3746 158.048C82.2898 178.488 84.4617 187.419 93.3505 195C94.5116 192.153 95.5173 191.022 100.35 193C115.448 205.619 125.789 210.089 140.525 208.184C145.464 207.545 146.494 201.262 142.35 198.5C135.677 193.909 133.224 191.463 132.85 187.5L132.367 186.919C131.076 185.371 132.645 183.057 134.586 183.601C143.794 186.183 149.807 186.314 157.85 183.5C153.308 183.071 150.068 183.384 147.762 181.92C146.397 181.052 147.546 179.364 149.151 179.563C161.668 181.114 169.313 178.854 177.095 174.294C183.083 170.785 188.331 165.726 190.588 159.164C191.835 155.539 192.682 151.292 193.354 145.446C193.731 142.162 193.718 138.84 193.38 135.552C192.418 126.186 191.248 119.611 188.35 109L181.85 93.5C177.453 83.6308 173.248 79.6643 160.85 77L144.35 71L136.116 67.4196C133.942 66.4747 131.703 65.688 129.375 65.2444C125.747 64.5529 120.015 63.7436 115.85 64.5C110.812 65.4151 103.917 69.3757 102.962 69.9344C102.885 69.9794 102.815 70.0278 102.746 70.0833L86.985 82.5991C86.6102 82.8966 86.8207 83.5 87.2992 83.5C87.7229 83.5 87.9584 83.9901 87.6937 84.3209L80.3505 93.5L76.2499 99.8085C74.6528 102.266 72.7988 104.546 71.0525 106.9C67.7486 111.352 65.9972 115.687 65.6704 120.427C65.2089 127.119 66.2277 133.925 65.0277 140.525C64.2553 144.773 64.5662 149.147 65.9315 153.243L66.4337 154.75C66.5344 155.052 66.9744 155.008 67.0139 154.692L68.1032 145.978C68.1677 145.462 68.8793 145.375 69.066 145.86L75.469 162.508C75.5776 162.791 75.9888 162.753 76.044 162.455L77.646 153.804C77.7527 153.228 78.593 153.274 78.6363 153.858L79.3505 163.5L81.1791 158.014C81.2142 157.909 81.3696 157.937 81.3746 158.048Z" fill="url(#paint2_radial_106_477)"/>
</g>
<g filter="url(#filter3_f_106_477)">
<path d="M68.8505 84.5C73.4423 83.6528 75.4962 83.4479 78.3505 83.5C73.2643 86.8155 70.1056 89.6214 64.3505 95C65.7429 90.4437 66.043 88.3981 68.8505 84.5Z" fill="#7CBF4E"/>
</g>
<g filter="url(#filter4_f_106_477)">
<path d="M77.3505 72.5L73.3505 77.5C80.5043 76.2069 83.1982 76.5497 86.3505 78.5L104.35 63.5C94.4881 67.403 89.0146 69.623 77.3505 72.5Z" fill="#6DB83E"/>
</g>
<g filter="url(#filter5_f_106_477)">
<path d="M161.85 209.5C157.778 213.985 154.657 216.094 148.35 219.5C156.108 218.38 160.538 217.862 168.85 217.5C185.77 208.733 193.38 203.371 199.35 192C195.597 193.678 192.615 194.142 187.35 195C178.04 200.547 173.375 202.186 165.85 203L161.85 209.5Z" fill="#82C342"/>
</g>
<g filter="url(#filter6_f_106_477)">
<path d="M126.85 47L104.35 55.5C113.716 54.4064 122.132 51.4045 130.35 53L126.85 47Z" fill="#66AE41"/>
</g>
<g filter="url(#filter7_f_106_477)">
<path d="M214.35 144.5V134.5C210.699 147.447 203.85 160 199.85 165C195.85 170 198.85 176 198.85 176C189.007 187.88 182.782 193.915 170.35 203.5C182.115 197.432 188.283 193.029 198.35 183C198.35 183 203.85 184.5 204.35 183C204.85 181.5 208.039 159.223 214.35 144.5Z" fill="#C1E14D"/>
</g>
<g filter="url(#filter8_f_106_477)">
<path d="M178.35 212.5C186.686 206.879 191.594 203.876 196.35 196C193.378 194.778 191.74 195.434 188.85 198C188.162 199.729 188.331 200.564 188.85 202C176.401 202.066 170.789 203.76 163.85 210.5C169.215 212.822 172.376 213.332 178.35 212.5Z" fill="#A7D447"/>
</g>
<g filter="url(#filter9_f_106_477)">
<path d="M211.35 130.5L212.85 114L213.85 127L211.35 130.5Z" fill="#B9DA48"/>
</g>
<path d="M97.3505 210L107.35 199C122.147 208.09 131.444 212.204 142.85 199L160.85 211C138.919 228.277 124.25 223.342 97.3505 210Z" fill="url(#paint3_linear_106_477)" fill-opacity="0.4"/>
<path d="M97.3505 210L107.35 199C122.147 208.09 131.444 212.204 142.85 199L160.85 211C138.919 228.277 124.25 223.342 97.3505 210Z" fill="url(#paint4_linear_106_477)" fill-opacity="0.1"/>
<path d="M104.407 202.096C105.679 203.779 106.758 205.533 107.98 207.827C108.358 208.534 107.776 209.366 106.98 209.266L102.113 208.658C101.281 208.554 100.435 208.636 99.6219 208.843C88.7895 211.593 82.626 205.682 72.3505 184C68.2022 177.281 67.8951 179.216 68.3505 185.5C68.3505 185.5 62.8505 173.772 62.8505 169.5C62.8505 166.5 63.3505 166 65.8505 166C69.0059 166 76.5176 175.024 79.5489 178.834C80.4251 179.935 81.1172 181.162 81.6519 182.464C88.496 199.13 92.7916 206.712 97.6593 202.373C99.6708 200.58 102.781 199.947 104.407 202.096Z" fill="#C0DE58"/>
<path d="M121.35 210.5C122.002 211.549 122.525 212.277 122.35 213.5C121.964 216.206 117.422 215.284 115.35 213.5C113.521 211.924 112.488 209.495 113.85 207.5C115.63 204.895 119.686 207.82 121.35 210.5Z" fill="#A5D749"/>
<g filter="url(#filter10_f_106_477)">
<path d="M128.85 209C127.901 202.949 132.393 200.271 135.85 202C142.431 205.29 148.269 207.515 155.459 209.187C156.134 209.344 156.46 210.121 156.05 210.681C153.817 213.726 150.969 215.595 144.85 218.5C142.232 218.307 140.789 217.951 138.35 216C136.005 221.227 131.35 221.5 128.85 209Z" fill="#95D346"/>
</g>
<circle cx="59.8505" cy="132.5" r="2.5" fill="white" fill-opacity="0.6"/>
<circle cx="76.3505" cy="111" r="2" fill="white" fill-opacity="0.6"/>
<circle cx="65.3505" cy="101" r="2" fill="white" fill-opacity="0.6"/>
<ellipse cx="79.8505" cy="99" rx="1.5" ry="2" fill="white" fill-opacity="0.6"/>
<ellipse cx="80.3505" cy="93.5" rx="1" ry="1.5" fill="white" fill-opacity="0.6"/>
<ellipse cx="81.3505" cy="88.5" rx="1" ry="1.5" transform="rotate(-15.4788 81.3505 88.5)" fill="white" fill-opacity="0.6"/>
<ellipse cx="75.3575" cy="83.6031" rx="2.0286" ry="3.07653" transform="rotate(-21.2848 75.3575 83.6031)" fill="white" fill-opacity="0.6"/>
<ellipse cx="78.6077" cy="81.1032" rx="1.34409" ry="1.82236" transform="rotate(-58.1629 78.6077 81.1032)" fill="white" fill-opacity="0.6"/>
<ellipse cx="83.8505" cy="75.8818" rx="1.1206" ry="1.49823" transform="rotate(-16.5015 83.8505 75.8818)" fill="white" fill-opacity="0.6"/>
<ellipse cx="104.869" cy="67.9747" rx="2.41634" ry="3.48618" transform="rotate(-14.2874 104.869 67.9747)" fill="white" fill-opacity="0.6"/>
<ellipse cx="121.802" cy="52.1105" rx="1.26775" ry="2.8482" transform="rotate(27.8548 121.802 52.1105)" fill="white" fill-opacity="0.6"/>
<ellipse cx="128.579" cy="45.1811" rx="1.43202" ry="1.56596" transform="rotate(27.8548 128.579 45.1811)" fill="white" fill-opacity="0.6"/>
<ellipse cx="140.892" cy="50.5536" rx="1.87046" ry="1.89978" transform="rotate(27.8548 140.892 50.5536)" fill="white" fill-opacity="0.6"/>
<ellipse cx="150.473" cy="45.7602" rx="1.87046" ry="1.00245" transform="rotate(27.8548 150.473 45.7602)" fill="white" fill-opacity="0.6"/>
<ellipse cx="155.714" cy="48.3039" rx="1.87046" ry="0.486328" transform="rotate(27.8548 155.714 48.3039)" fill="white" fill-opacity="0.6"/>
<ellipse cx="169.53" cy="53.8694" rx="1.87046" ry="1.12591" transform="rotate(27.8548 169.53 53.8694)" fill="white" fill-opacity="0.6"/>
<ellipse cx="178.249" cy="56.3168" rx="1.02143" ry="1.01599" transform="rotate(27.8548 178.249 56.3168)" fill="white" fill-opacity="0.6"/>
<ellipse cx="185.722" cy="62.9284" rx="1.50849" ry="1.40817" transform="rotate(27.8548 185.722 62.9284)" fill="white" fill-opacity="0.6"/>
<ellipse cx="189.657" cy="68.7187" rx="1.21172" ry="0.808904" transform="rotate(27.8548 189.657 68.7187)" fill="white" fill-opacity="0.6"/>
<ellipse cx="198.96" cy="76.1139" rx="2.47863" ry="2.18551" transform="rotate(77.7441 198.96 76.1139)" fill="white" fill-opacity="0.6"/>
<ellipse cx="208.35" cy="109.464" rx="1.92561" ry="1.62834" transform="rotate(77.7441 208.35 109.464)" fill="white" fill-opacity="0.6"/>
<ellipse cx="208.942" cy="116.5" rx="1.34031" ry="0.896172" transform="rotate(90.3868 208.942 116.5)" fill="white" fill-opacity="0.6"/>
<ellipse cx="207.36" cy="121.5" rx="2.4865" ry="2.00779" transform="rotate(90.3868 207.36 121.5)" fill="white" fill-opacity="0.6"/>
<ellipse cx="206.047" cy="135.799" rx="2.18509" ry="1.68132" transform="rotate(90.3868 206.047 135.799)" fill="white" fill-opacity="0.6"/>
<ellipse cx="213.449" cy="137.602" rx="2.78868" ry="0.920702" transform="rotate(90.3868 213.449 137.602)" fill="white" fill-opacity="0.6"/>
<ellipse cx="196.298" cy="184.278" rx="1.76244" ry="1.93213" transform="rotate(90.3868 196.298 184.278)" fill="white" fill-opacity="0.6"/>
<ellipse cx="189.775" cy="194.639" rx="1.93451" ry="2.23108" transform="rotate(165.722 189.775 194.639)" fill="white" fill-opacity="0.6"/>
<ellipse cx="177.563" cy="202.207" rx="1.31145" ry="1.48643" transform="rotate(165.722 177.563 202.207)" fill="white" fill-opacity="0.6"/>
<ellipse cx="166.309" cy="206.981" rx="1.31145" ry="1.48643" transform="rotate(-140.302 166.309 206.981)" fill="white" fill-opacity="0.6"/>
<ellipse cx="164.309" cy="208.981" rx="1.31145" ry="1.48643" transform="rotate(-140.302 164.309 208.981)" fill="white" fill-opacity="0.6"/>
<ellipse cx="164.911" cy="213.701" rx="1.31145" ry="1.48643" transform="rotate(169.499 164.911 213.701)" fill="white" fill-opacity="0.6"/>
<ellipse cx="152.831" cy="212.641" rx="1.64557" ry="2.096" transform="rotate(-149.554 152.831 212.641)" fill="white" fill-opacity="0.6"/>
<ellipse cx="142.608" cy="214.826" rx="1.42991" ry="1.68381" transform="rotate(152.413 142.608 214.826)" fill="white" fill-opacity="0.6"/>
<ellipse cx="143.886" cy="211.093" rx="1.4141" ry="3.44371" transform="rotate(121.723 143.886 211.093)" fill="white" fill-opacity="0.6"/>
<ellipse cx="131.023" cy="208.014" rx="1.4141" ry="3.44371" transform="rotate(121.723 131.023 208.014)" fill="white" fill-opacity="0.6"/>
<ellipse cx="131.061" cy="203.396" rx="1.4141" ry="3.44371" transform="rotate(72.2592 131.061 203.396)" fill="white" fill-opacity="0.6"/>
<ellipse cx="140.43" cy="205.314" rx="1.4141" ry="3.12757" transform="rotate(39.4523 140.43 205.314)" fill="white" fill-opacity="0.6"/>
<ellipse cx="135.206" cy="206.876" rx="0.826189" ry="0.775854" transform="rotate(39.4523 135.206 206.876)" fill="white" fill-opacity="0.6"/>
<ellipse cx="122.85" cy="215.099" rx="1.86742" ry="1.66509" transform="rotate(39.4523 122.85 215.099)" fill="white" fill-opacity="0.6"/>
<ellipse cx="116.792" cy="204.972" rx="2.22997" ry="2.01428" transform="rotate(39.4523 116.792 204.972)" fill="white" fill-opacity="0.6"/>
<ellipse cx="145.303" cy="193.558" rx="6.89349" ry="1.00053" transform="rotate(4.66737 145.303 193.558)" fill="white" fill-opacity="0.6"/>
<ellipse cx="165.276" cy="191.603" rx="3.56769" ry="0.872209" transform="rotate(4.66737 165.276 191.603)" fill="white" fill-opacity="0.6"/>
<ellipse cx="162.038" cy="193.838" rx="1.52134" ry="1.29172" transform="rotate(72.5807 162.038 193.838)" fill="white" fill-opacity="0.6"/>
<ellipse cx="113.951" cy="207.661" rx="1.22027" ry="1.16469" transform="rotate(39.4523 113.951 207.661)" fill="white" fill-opacity="0.6"/>
<ellipse cx="111.85" cy="197.434" rx="1.99436" ry="1.51085" transform="rotate(39.4523 111.85 197.434)" fill="white" fill-opacity="0.6"/>
<ellipse cx="105.35" cy="200.267" rx="1.71415" ry="1.06449" transform="rotate(39.4523 105.35 200.267)" fill="white" fill-opacity="0.6"/>
<ellipse cx="101.892" cy="200.519" rx="2.43808" ry="1.39413" transform="rotate(86.4825 101.892 200.519)" fill="white" fill-opacity="0.6"/>
<ellipse cx="98.9652" cy="207.717" rx="1.23801" ry="1.39413" transform="rotate(86.4825 98.9652 207.717)" fill="white" fill-opacity="0.6"/>
<ellipse cx="97.1263" cy="194.849" rx="1.63642" ry="1.85724" transform="rotate(108.977 97.1263 194.849)" fill="white" fill-opacity="0.6"/>
<ellipse cx="90.8685" cy="195.447" rx="1.33069" ry="2.18609" transform="rotate(131.63 90.8685 195.447)" fill="white" fill-opacity="0.6"/>
<ellipse cx="82.9043" cy="200.847" rx="2.43723" ry="2.55782" transform="rotate(131.63 82.9043 200.847)" fill="white" fill-opacity="0.6"/>
<ellipse cx="168.944" cy="72.5437" rx="2.3701" ry="2.41254" transform="rotate(131.63 168.944 72.5437)" fill="white" fill-opacity="0.2"/>
<ellipse cx="151.728" cy="65.3742" rx="2.3701" ry="2.41254" transform="rotate(131.63 151.728 65.3742)" fill="white" fill-opacity="0.2"/>
<ellipse cx="168.628" cy="63.758" rx="1.76146" ry="2.41254" transform="rotate(166.457 168.628 63.758)" fill="white" fill-opacity="0.2"/>
<ellipse cx="155.716" cy="60.1225" rx="1.76146" ry="2.03759" transform="rotate(166.457 155.716 60.1225)" fill="white" fill-opacity="0.2"/>
<ellipse cx="145.142" cy="55.4894" rx="1.35167" ry="2.03759" transform="rotate(166.457 145.142 55.4894)" fill="white" fill-opacity="0.2"/>
<ellipse cx="132.254" cy="60.7172" rx="1.12901" ry="1.66459" transform="rotate(-164.095 132.254 60.7172)" fill="white" fill-opacity="0.2"/>
<ellipse cx="78.1458" cy="190.008" rx="1.77445" ry="1.75013" transform="rotate(131.63 78.1458 190.008)" fill="white" fill-opacity="0.6"/>
<ellipse cx="75.3949" cy="189.325" rx="1.28152" ry="1.07961" transform="rotate(164.633 75.3949 189.325)" fill="white" fill-opacity="0.6"/>
<ellipse cx="72.0159" cy="189.023" rx="1.63166" ry="1.24131" transform="rotate(136.654 72.0159 189.023)" fill="white" fill-opacity="0.6"/>
<ellipse cx="77.1236" cy="175.469" rx="2.2131" ry="1.43972" transform="rotate(83.238 77.1236 175.469)" fill="white" fill-opacity="0.6"/>
<ellipse cx="66.9417" cy="172.808" rx="1.664" ry="1.33291" transform="rotate(56.695 66.9417 172.808)" fill="white" fill-opacity="0.6"/>
<ellipse cx="79.5796" cy="165.429" rx="1.29702" ry="1.33291" transform="rotate(56.695 79.5796 165.429)" fill="white" fill-opacity="0.6"/>
<ellipse cx="83.1156" cy="177.136" rx="1.93366" ry="1.09357" transform="rotate(3.87675 83.1156 177.136)" fill="white" fill-opacity="0.6"/>
<ellipse cx="129.648" cy="221.883" rx="1.2944" ry="0.877406" transform="rotate(0.232219 129.648 221.883)" fill="white" fill-opacity="0.6"/>
<ellipse cx="134.928" cy="50.0444" rx="0.780561" ry="1.89978" transform="rotate(27.8548 134.928 50.0444)" fill="white" fill-opacity="0.6"/>
<ellipse cx="111.433" cy="66.0767" rx="1.90199" ry="2.45331" transform="rotate(-45.423 111.433 66.0767)" fill="white" fill-opacity="0.6"/>
<ellipse cx="107.433" cy="64.0767" rx="1.90199" ry="2.45331" transform="rotate(-45.423 107.433 64.0767)" fill="white" fill-opacity="0.6"/>
<ellipse cx="105.433" cy="60.0767" rx="1.90199" ry="2.45331" transform="rotate(12.8176 105.433 60.0767)" fill="white" fill-opacity="0.6"/>
<ellipse cx="80.9822" cy="73.7645" rx="0.989848" ry="1.51661" transform="rotate(12.1841 80.9822 73.7645)" fill="white" fill-opacity="0.6"/>
<circle cx="61.8505" cy="109.5" r="1.5" fill="white" fill-opacity="0.6"/>
<ellipse cx="70.8505" cy="123" rx="2.5" ry="2" transform="rotate(-14.2209 70.8505 123)" fill="white" fill-opacity="0.6"/>
<ellipse cx="69.1362" cy="118.205" rx="2.5" ry="1.7713" transform="rotate(10.7154 69.1362 118.205)" fill="white" fill-opacity="0.6"/>
<circle cx="66.3505" cy="161" r="2" fill="white" fill-opacity="0.6"/>
<ellipse cx="65.1644" cy="163.916" rx="2.50529" ry="1.55775" transform="rotate(49.3472 65.1644 163.916)" fill="white" fill-opacity="0.6"/>
<ellipse cx="71.2422" cy="162.455" rx="2.98721" ry="2.18765" transform="rotate(74.8637 71.2422 162.455)" fill="white" fill-opacity="0.6"/>
<ellipse cx="70.0189" cy="165.718" rx="2.38409" ry="1.42698" transform="rotate(47.0819 70.0189 165.718)" fill="white" fill-opacity="0.6"/>
<ellipse cx="70.6489" cy="155.463" rx="2.08927" ry="1.67286" transform="rotate(92.3404 70.6489 155.463)" fill="white" fill-opacity="0.6"/>
<ellipse cx="73.0816" cy="156.714" rx="1.4614" ry="0.975172" transform="rotate(43.5272 73.0816 156.714)" fill="white" fill-opacity="0.6"/>
<ellipse cx="74.3505" cy="164.033" rx="1.74879" ry="1.10491" transform="rotate(47.0819 74.3505 164.033)" fill="white" fill-opacity="0.6"/>
<ellipse cx="67.5436" cy="159.12" rx="1.52793" ry="1.30583" transform="rotate(66.491 67.5436 159.12)" fill="white" fill-opacity="0.6"/>
<circle cx="63.8505" cy="137.5" r="1.5" fill="white" fill-opacity="0.6"/>
<ellipse cx="61.8293" cy="147.578" rx="1.13098" ry="2.44978" transform="rotate(-41.9548 61.8293 147.578)" fill="white" fill-opacity="0.6"/>
<ellipse cx="66.8293" cy="148.578" rx="1.13098" ry="2.44978" transform="rotate(-6.38617 66.8293 148.578)" fill="white" fill-opacity="0.6"/>
<ellipse cx="79.6651" cy="137.829" rx="1.13098" ry="1.71419" transform="rotate(-6.38617 79.6651 137.829)" fill="white" fill-opacity="0.6"/>
<ellipse cx="75.6651" cy="150.829" rx="1.13098" ry="1.71419" transform="rotate(4.04495 75.6651 150.829)" fill="white" fill-opacity="0.6"/>
<ellipse cx="82.1135" cy="155.382" rx="0.647034" ry="1.2717" transform="rotate(4.04495 82.1135 155.382)" fill="white" fill-opacity="0.6"/>
<path d="M86.774 67.8005L83.5866 68.9596C82.5811 69.3252 81.7812 68.0692 82.5378 67.3127L83.9866 65.8639C84.2149 65.6355 84.5395 65.5315 84.8581 65.5846L86.5966 65.8744C87.6109 66.0434 87.7403 67.4492 86.774 67.8005Z" fill="white"/>
<path d="M101.463 59.7507L96.1614 64.2369C95.9621 64.4056 95.7047 64.4896 95.4442 64.471L91.2057 64.1682C90.3247 64.1053 89.9519 63.0145 90.6102 62.4255L97.6911 56.09C98.0676 55.7531 98.6362 55.75 99.0164 56.0827L101.476 58.2347C101.936 58.6375 101.93 59.3556 101.463 59.7507Z" fill="white"/>
<ellipse cx="171.713" cy="191" rx="1.56315" ry="1.40108" transform="rotate(114.19 171.713 191)" fill="white" fill-opacity="0.6"/>
<defs>
<filter id="filter0_f_106_477" x="55.2646" y="91" width="13.5859" height="82" filterUnits="userSpaceOnUse" color-interpolation-filters="sRGB">
<feFlood flood-opacity="0" result="BackgroundImageFix"/>
<feBlend mode="normal" in="SourceGraphic" in2="BackgroundImageFix" result="shape"/>
<feGaussianBlur stdDeviation="1" result="effect1_foregroundBlur_106_477"/>
</filter>
<filter id="filter1_f_106_477" x="58.8462" y="38.1122" width="154.389" height="106.388" filterUnits="userSpaceOnUse" color-interpolation-filters="sRGB">
<feFlood flood-opacity="0" result="BackgroundImageFix"/>
<feBlend mode="normal" in="SourceGraphic" in2="BackgroundImageFix" result="shape"/>
<feGaussianBlur stdDeviation="1" result="effect1_foregroundBlur_106_477"/>
</filter>
<filter id="filter2_df_106_477" x="0.613342" y="0.195816" width="257.022" height="272.409" filterUnits="userSpaceOnUse" color-interpolation-filters="sRGB">
<feFlood flood-opacity="0" result="BackgroundImageFix"/>
<feColorMatrix in="SourceAlpha" type="matrix" values="0 0 0 0 0 0 0 0 0 0 0 0 0 0 0 0 0 0 127 0" result="hardAlpha"/>
<feOffset/>
<feGaussianBlur stdDeviation="32"/>
<feColorMatrix type="matrix" values="0 0 0 0 0.239216 0 0 0 0 0.494118 0 0 0 0 0.184314 0 0 0 1 0"/>
<feBlend mode="normal" in2="BackgroundImageFix" result="effect1_dropShadow_106_477"/>
<feBlend mode="normal" in="SourceGraphic" in2="effect1_dropShadow_106_477" result="shape"/>
<feGaussianBlur stdDeviation="1" result="effect2_foregroundBlur_106_477"/>
</filter>
<filter id="filter3_f_106_477" x="62.3505" y="81.4924" width="18" height="15.5076" filterUnits="userSpaceOnUse" color-interpolation-filters="sRGB">
<feFlood flood-opacity="0" result="BackgroundImageFix"/>
<feBlend mode="normal" in="SourceGraphic" in2="BackgroundImageFix" result="shape"/>
<feGaussianBlur stdDeviation="1" result="effect1_foregroundBlur_106_477"/>
</filter>
<filter id="filter4_f_106_477" x="69.3505" y="59.5" width="39" height="23" filterUnits="userSpaceOnUse" color-interpolation-filters="sRGB">
<feFlood flood-opacity="0" result="BackgroundImageFix"/>
<feBlend mode="normal" in="SourceGraphic" in2="BackgroundImageFix" result="shape"/>
<feGaussianBlur stdDeviation="2" result="effect1_foregroundBlur_106_477"/>
</filter>
<filter id="filter5_f_106_477" x="146.35" y="190" width="55" height="31.5" filterUnits="userSpaceOnUse" color-interpolation-filters="sRGB">
<feFlood flood-opacity="0" result="BackgroundImageFix"/>
<feBlend mode="normal" in="SourceGraphic" in2="BackgroundImageFix" result="shape"/>
<feGaussianBlur stdDeviation="1" result="effect1_foregroundBlur_106_477"/>
</filter>
<filter id="filter6_f_106_477" x="102.35" y="45" width="30" height="12.5" filterUnits="userSpaceOnUse" color-interpolation-filters="sRGB">
<feFlood flood-opacity="0" result="BackgroundImageFix"/>
<feBlend mode="normal" in="SourceGraphic" in2="BackgroundImageFix" result="shape"/>
<feGaussianBlur stdDeviation="1" result="effect1_foregroundBlur_106_477"/>
</filter>
<filter id="filter7_f_106_477" x="168.35" y="132.5" width="48" height="73" filterUnits="userSpaceOnUse" color-interpolation-filters="sRGB">
<feFlood flood-opacity="0" result="BackgroundImageFix"/>
<feBlend mode="normal" in="SourceGraphic" in2="BackgroundImageFix" result="shape"/>
<feGaussianBlur stdDeviation="1" result="effect1_foregroundBlur_106_477"/>
</filter>
<filter id="filter8_f_106_477" x="162.85" y="194.405" width="34.5" height="19.4692" filterUnits="userSpaceOnUse" color-interpolation-filters="sRGB">
<feFlood flood-opacity="0" result="BackgroundImageFix"/>
<feBlend mode="normal" in="SourceGraphic" in2="BackgroundImageFix" result="shape"/>
<feGaussianBlur stdDeviation="0.5" result="effect1_foregroundBlur_106_477"/>
</filter>
<filter id="filter9_f_106_477" x="210.35" y="113" width="4.5" height="18.5" filterUnits="userSpaceOnUse" color-interpolation-filters="sRGB">
<feFlood flood-opacity="0" result="BackgroundImageFix"/>
<feBlend mode="normal" in="SourceGraphic" in2="BackgroundImageFix" result="shape"/>
<feGaussianBlur stdDeviation="0.5" result="effect1_foregroundBlur_106_477"/>
</filter>
<filter id="filter10_f_106_477" x="126.722" y="199.483" width="31.5092" height="21.911" filterUnits="userSpaceOnUse" color-interpolation-filters="sRGB">
<feFlood flood-opacity="0" result="BackgroundImageFix"/>
<feBlend mode="normal" in="SourceGraphic" in2="BackgroundImageFix" result="shape"/>
<feGaussianBlur stdDeviation="1" result="effect1_foregroundBlur_106_477"/>
</filter>
<linearGradient id="paint0_linear_106_477" x1="135.35" y1="189" x2="131.85" y2="33.5" gradientUnits="userSpaceOnUse">
<stop stop-color="#95D254"/>
<stop offset="1" stop-color="#A5DC69"/>
</linearGradient>
<radialGradient id="paint1_radial_106_477" cx="0" cy="0" r="1" gradientUnits="userSpaceOnUse" gradientTransform="translate(135.763 130) rotate(89.6174) scale(88.002 74.5423)">
<stop stop-color="#2C6325"/>
<stop offset="1" stop-color="#97D257"/>
</radialGradient>
<radialGradient id="paint2_radial_106_477" cx="0" cy="0" r="1" gradientUnits="userSpaceOnUse" gradientTransform="translate(128.85 136.4) rotate(90) scale(72.2046 65)">
<stop stop-color="#2C6325"/>
<stop offset="1" stop-color="#4A9437"/>
</radialGradient>
<linearGradient id="paint3_linear_106_477" x1="139.35" y1="206.5" x2="107.35" y2="212" gradientUnits="userSpaceOnUse">
<stop stop-color="#4E9D3A"/>
<stop offset="1" stop-color="#96D355"/>
</linearGradient>
<linearGradient id="paint4_linear_106_477" x1="121.35" y1="217.5" x2="124.35" y2="204.5" gradientUnits="userSpaceOnUse">
<stop stop-color="#4E9D3A"/>
<stop offset="1" stop-color="#96D355"/>
</linearGradient>
</defs>
</svg>
