<svg width="174" height="181" viewBox="0 0 174 181" fill="none" xmlns="http://www.w3.org/2000/svg">
<g filter="url(#filter0_f_106_583)">
<path d="M87.1752 37L65.6752 35L37.6752 44L50.6752 28.5L67.6752 24.5H91.6752L126.175 36L134.675 48L149.675 79V97.5L145.675 118.5L140.675 135L134.675 138L138.675 111.5L136.675 93.5L131.175 75L125.675 59.5L87.1752 37Z" fill="url(#paint0_linear_106_583)"/>
</g>
<g filter="url(#filter1_f_106_583)">
<path d="M77.0161 168.398L73.0393 165.841C72.1998 165.301 72.582 164 73.58 164H74.4826C74.6099 164 74.7359 164.024 74.854 164.072L81.9618 166.915C82.1023 166.971 82.2536 166.994 82.4045 166.984L102.72 165.533C103.009 165.512 103.293 165.618 103.498 165.823L106.713 169.038C106.994 169.318 107.414 169.406 107.784 169.262L129.916 160.601C130.086 160.535 130.234 160.424 130.345 160.28L135.117 154.076C135.156 154.026 135.19 153.971 135.218 153.914L141.07 142.211C141.139 142.072 141.175 141.919 141.175 141.764V139.11C141.175 139.037 141.183 138.964 141.199 138.893L143.066 130.492C143.135 130.183 143.346 129.924 143.636 129.795L151.768 126.181C152.027 126.066 152.225 125.846 152.313 125.576L156.724 112.003C157.076 110.92 158.675 111.174 158.675 112.312V117.35C158.675 117.449 158.66 117.548 158.631 117.644L150.698 143.425C150.683 143.475 150.672 143.526 150.664 143.578L149.298 153.141C149.228 153.634 148.806 154 148.308 154H144.175C143.623 154 143.175 153.552 143.175 153V152.035C143.175 151.701 143.342 151.389 143.621 151.203L147.345 148.72C147.557 148.579 147.707 148.362 147.765 148.113L148.162 146.391C148.403 145.348 147.059 144.707 146.4 145.55L127.814 169.322C127.723 169.439 127.606 169.534 127.474 169.601L118.803 173.936C118.718 173.978 118.628 174.009 118.535 174.026L107.675 176L99.0658 178.392C98.8153 178.461 98.5476 178.43 98.3193 178.306L82.3088 169.573C82.2203 169.525 82.1249 169.49 82.0261 169.47L77.3607 168.537C77.2382 168.513 77.1213 168.465 77.0161 168.398Z" fill="url(#paint1_linear_106_583)"/>
</g>
<g filter="url(#filter2_f_106_583)">
<path d="M119.675 72.5L93.1752 45L110.675 50L125.175 59L127.675 68.5L119.675 72.5Z" fill="#73B64B" style="mix-blend-mode:difference"/>
</g>
<g filter="url(#filter3_f_106_583)">
<path d="M135.175 67L134.682 81.7914C134.678 81.9301 134.687 82.0689 134.712 82.2056L139.175 107.5L140.091 111.621C140.147 111.871 140.154 112.13 140.111 112.383L138.675 121L133.175 138.5L131.761 146.986C131.705 147.323 131.563 147.64 131.35 147.907L127.97 152.131C127.776 152.374 127.528 152.568 127.247 152.698L114.675 158.5M118.175 158.5L131.343 153.327C131.873 153.119 132.288 152.695 132.487 152.162L138.675 135.5L144.533 121.343C144.627 121.116 144.678 120.874 144.685 120.629L145.172 101.146C145.174 101.049 145.169 100.952 145.158 100.855L143.175 84.5L141.724 67.5644C141.692 67.1954 141.559 66.8424 141.338 66.5448L131.846 53.7309C131.733 53.5778 131.598 53.4416 131.446 53.3266L113.317 39.607C113.223 39.5358 113.122 39.4731 113.017 39.4195L85.6752 25.5M136.675 87L141.542 99.6534C141.63 99.8825 141.675 100.126 141.675 100.371V107.5V110L140.192 122.357C140.181 122.452 140.163 122.546 140.138 122.639L136.675 135.5L134.675 140.5L131.917 150.154C131.763 150.693 131.39 151.143 130.888 151.393L120.675 156.5M146.675 112L150.019 101.492C150.121 101.169 150.14 100.826 150.074 100.494L147.75 88.8744C147.701 88.627 147.698 88.3725 147.744 88.1244L148.556 83.6559C148.633 83.2302 148.571 82.7908 148.377 82.4037L147.328 80.3064C147.227 80.1036 147.161 79.885 147.133 79.6601L146.212 72.2915C146.188 72.0982 146.135 71.9095 146.056 71.7313L136.859 50.915C136.738 50.6418 136.558 50.3991 136.331 50.2048L129.795 44.6024C129.715 44.5342 129.63 44.4724 129.541 44.4176L123.33 40.5952C123.227 40.5319 123.13 40.4593 123.04 40.3785L113.175 31.5M127.675 56L137.125 64.9772C137.479 65.314 137.698 65.7691 137.74 66.2564L139.175 83M121.675 161.5L134.358 155.393C134.878 155.143 135.264 154.682 135.418 154.127L140.087 137.317C140.145 137.107 140.238 136.908 140.36 136.728L148.543 124.695C148.631 124.565 148.703 124.426 148.759 124.28L154.175 110M131.675 73.5V64.7241C131.675 64.2562 131.511 63.8032 131.212 63.4437L126.675 58L119.566 49.9423C119.311 49.6536 118.978 49.4445 118.607 49.3403L103.371 45.0551C103.241 45.0185 103.107 44.9951 102.972 44.9855L96.8602 44.5489C96.4163 44.5172 95.9956 44.3383 95.6648 44.0406L86.1752 35.5M74.1752 29L91.8604 33.4213C92.0689 33.4734 92.2677 33.5588 92.449 33.6742L102.999 40.3879C103.116 40.4624 103.241 40.5246 103.371 40.5733L111.175 43.5M109.675 33L98.1752 25.5L89.5105 18.6594C88.9883 18.2472 88.2953 18.1216 87.6617 18.3243L76.1752 22M82.6752 29L71.84 25.5524C71.7304 25.5175 71.6179 25.4922 71.5039 25.4766L61.188 24.0699C60.8517 24.0241 60.5092 24.0646 60.1929 24.1876L51.6752 27.5M80.1752 29L64.3857 27.5197C64.2458 27.5066 64.1049 27.5083 63.9653 27.5247L55.6752 28.5M82.6752 33.5L69.5071 31.5492C69.2874 31.5166 69.0638 31.5209 68.8455 31.5618L61.1752 33M85.6752 40.5L76.168 36.2217C75.8453 36.0765 75.4898 36.0195 75.1379 36.0566L66.1752 37" stroke="url(#paint2_linear_106_583)" stroke-width="2"/>
</g>
<g filter="url(#filter4_f_106_583)">
<path d="M27.6752 137.5L31.6752 141.5L36.6752 149.5L51.6752 162.5L68.6752 165.5M30.6752 144.5L38.1752 155.5L48.6752 162L59.1752 171.5L46.6752 164L36.6752 160L29.6752 148M75.1752 171.5L69.1752 168M59.6752 166L71.1752 174.5M60.6752 160L71.1752 163.5M48.6752 157L55.1752 160.5L60.6752 162M56.6752 166L63.1752 173L69.6752 176M84.1752 172.5L74.6752 169M83.1752 164L72.6752 161M120.675 135.5L127.175 125M115.175 145L122.675 140L127.175 129M121.175 144.5L125.175 140L126.175 136.5M121.175 137L124.175 133" stroke="#60A247"/>
</g>
<g filter="url(#filter5_f_106_583)">
<path d="M71.1752 48.5L60.5097 43.7598C58.6862 42.9493 56.6256 42.8499 54.7326 43.4809V43.4809C53.7051 43.8234 52.6187 43.9536 51.5393 43.8637L51.1344 43.8299C48.592 43.6181 46.0651 44.3881 44.073 45.9818L35.0757 53.1797C33.1674 54.7063 31.6342 56.6497 30.5937 58.8608L25.923 68.7859C24.7764 71.2225 24.2633 73.9091 24.4313 76.5968L24.4671 77.1698C24.6044 79.3663 24.287 81.5675 23.5349 83.6358L20.6752 91.5L19.2963 96.671C18.8846 98.215 18.7065 99.8119 18.7679 101.409L19.1151 110.436C19.1551 111.476 19.0935 112.518 18.9311 113.546L17.6752 121.5L16.2914 105.816C16.2141 104.94 16.2091 104.059 16.2766 103.183L17.0718 92.8449C17.1406 91.9499 17.2847 91.0623 17.5024 90.1914L21.6752 73.5" stroke="url(#paint3_radial_106_583)"/>
</g>
<g filter="url(#filter6_f_106_583)">
<path d="M77.1752 159C77.1752 159 72.1752 153.5 73.1752 153C74.1752 152.5 87.4186 156.962 95.6752 153C90.1521 151.424 89.3916 150.884 86.6752 148C101.271 148.159 112.538 149.681 127.675 143V138.5C128.217 132.697 129.017 128.785 130.675 121.5V116.5C130.675 116.5 131.675 113.5 132.675 112.5C133.675 111.5 134.175 114 134.175 114L138.175 102.5V109L134.675 117.5L135.175 121.5L134.175 123V127C134.175 127 135.175 127.5 135.175 129C135.175 130.5 132.675 137.5 132.675 137.5L131.675 144C131.675 144 128.175 151.5 123.175 155C118.175 158.5 97.1752 164.5 91.6752 164C86.1752 163.5 82.1752 161 82.1752 161C82.1752 161 90.6752 170 88.6752 170C86.6752 170 77.1752 163.5 76.6752 162C76.1752 160.5 77.1752 159 77.1752 159Z" fill="url(#paint4_linear_106_583)"/>
</g>
<g filter="url(#filter7_f_106_583)">
<path d="M43.1752 56.5L26.6752 76L33.6752 58L43.1752 56.5Z" fill="#4B9539"/>
</g>
<g filter="url(#filter8_f_106_583)">
<path d="M13.1752 110.5L8.10988 101.636C7.53844 100.636 7.58997 99.3967 8.24248 98.4476L12.1474 92.7678C12.4912 92.2677 12.6752 91.6751 12.6752 91.0682V89.7426C12.6752 88.947 12.9913 88.1839 13.5539 87.6213L19.6752 81.5" stroke="#C0DE7F"/>
</g>
<g filter="url(#filter9_f_106_583)">
<path d="M15.1752 122C13.7738 113.899 13.1752 99 12.1752 101.5C12.2605 98.1798 13.6752 100.5 14.1752 90.5" stroke="#73C442" stroke-width="2"/>
</g>
<path d="M37.6752 76.5L28.1752 91L38.6752 80L37.6752 76.5Z" fill="#8BD046"/>
<path d="M35.6752 125.5L38.0854 127.566C38.8062 128.184 39.4113 128.925 39.8723 129.755L41.3097 132.342C41.5528 132.78 41.8366 133.194 42.1571 133.578L44.1752 136L49.8398 141.665C50.718 142.543 51.7886 143.204 52.9669 143.597L55.6752 144.5" stroke="#82C161" stroke-width="2"/>
<path d="M36.1752 132.5L41.2251 139.386C41.5232 139.793 41.8859 140.147 42.2988 140.436L46.2063 143.172C46.4534 143.345 46.7963 143.258 46.9312 142.988V142.988C47.0619 142.727 47.3896 142.635 47.6366 142.791L56.6752 148.5" stroke="#A2DF6D" stroke-width="2"/>
<path d="M31.6752 122C30.0144 92.6466 35.0165 79.2153 56.1752 61.5C56.1752 61.5 40.0502 66 32.1752 87C24.3002 108 31.6752 122 31.6752 122Z" fill="#59B540"/>
<path d="M99.8957 143.587L105.411 144.458C105.585 144.486 105.749 144.555 105.889 144.66C106.61 145.201 106.387 146.336 105.515 146.564L96.1752 149L93.1151 150.224C92.3194 150.542 92.2319 151.634 92.9668 152.075C93.8681 152.616 93.4847 154 92.4336 154H83.9857C83.0985 154 82.8703 152.771 83.6984 152.453C84.4383 152.168 84.3586 151.096 83.5847 150.924L73.2518 148.628C72.8695 148.543 72.5018 148.402 72.1604 148.21L66.7937 145.192C65.3895 144.402 63.8454 143.899 62.3513 143.296C58.2584 141.643 55.4469 138.065 51.1742 131.741C50.8422 131.25 50.4476 130.802 50.013 130.398C46.4239 127.066 44.5042 124.036 42.3318 118.874C41.8898 117.824 42.963 116.795 44.0042 117.257C44.8154 117.618 45.7378 117.061 45.7969 116.175L45.9692 113.591C46.0195 112.835 45.0139 112.532 44.6385 113.189C44.4052 113.598 43.8475 113.672 43.515 113.34L42.3278 112.153C41.9138 111.739 41.7025 111.164 41.7498 110.58L42.7678 98.0245C43.033 94.7541 44.2972 91.6442 46.3892 89.1165L55.1752 78.5L43.4635 91.0195C41.6339 92.9752 40.3246 95.3588 39.6554 97.9519L37.0864 107.907C36.813 108.966 36.6458 110.053 36.6059 111.146C36.3037 119.439 36.7882 126.184 37.9857 135.669C38.6794 141.164 42.258 145.86 47.3251 148.096L56.1752 152L54.7555 144.428C54.7138 144.206 54.8843 144 55.1106 144C55.3742 144 55.5491 143.727 55.4386 143.487L52.6752 137.5C60.7877 145.661 67.6414 147.498 79.6752 151L61.1752 148L73.4319 156.485C73.9049 156.813 74.216 157.326 74.2874 157.897C74.4693 159.353 73.0888 160.512 71.6864 160.08L68.8765 159.216C68.413 159.073 67.9232 159.02 67.439 159.047C56.0768 159.683 50.3694 155.818 40.6752 147.5L46.4306 159.422C47.0066 160.615 46.1373 162 44.8124 162C44.4002 162 43.9983 161.859 43.6837 161.593C39.4586 158.019 38.214 154.898 36.6752 149L32.4397 127.352C32.2637 126.452 32.1642 125.537 32.1484 124.62C32.0164 116.962 32.23 111.852 33.2547 104.046C33.5188 102.033 34.2013 100.097 35.1936 98.3264C40.5744 88.7271 43.6943 81.9366 50.6752 74L40.6752 78.5L42.1483 75.7643C43.4763 73.298 45.4012 71.1708 47.8822 69.8706C54.302 66.5063 59.2783 65.7655 64.4121 67.3829C67.5937 68.3852 70.9802 68.9585 74.1752 68C71.2145 65.8636 68.0334 64.3767 61.1752 61.5C67.7484 59.9121 71.6529 59.672 78.6443 63.4297C79.3223 63.7941 80.0799 64 80.8497 64H83.7379C85.007 64 85.9662 62.8506 85.7392 61.602L85.5791 60.7212C85.3898 59.68 86.3388 58.7909 87.3654 59.0475L88.318 59.2857C88.7534 59.3945 89.1752 59.0652 89.1752 58.6163C89.1752 58.1035 89.715 57.7699 90.1737 57.9992L90.3716 58.0982C90.8042 58.3145 91.3293 58.1149 91.5089 57.6658L91.6188 57.3912C91.8945 56.7019 92.7603 56.4787 93.3349 56.9488L103.175 65L97.1752 58.5C94.302 55.1479 84.253 53.4722 70.0752 52.1702C69.0449 52.0756 68.2983 51.1388 68.4446 50.1146C68.5755 49.1979 69.3796 48.5293 70.3048 48.5679L79.4156 48.9475C80.1026 48.9761 80.6752 48.4269 80.6752 47.7392C80.6752 46.8965 81.5156 46.3121 82.3056 46.6056L96.0405 51.7071C97.4497 52.2305 98.7527 53.0186 99.8189 54.0784C104.774 59.0042 107.123 63.1132 108.734 70.7294C109.051 72.2281 109.523 73.6957 110.208 75.0659L110.675 76V71C111.946 76.498 112.734 79.3685 114.675 83C114.394 78.7403 113.888 76.327 112.675 72C117.887 79.9626 119.517 85.7759 121.91 95.8781C122.084 96.6104 122.457 97.2819 122.989 97.8141C123.749 98.5734 124.175 99.6033 124.175 100.677V110.775C124.175 113.859 123.284 116.878 121.608 119.467L119.596 122.577C118.984 123.523 118.273 124.402 117.477 125.199L114.406 128.269C112.611 130.064 110.417 131.415 107.992 132.165C100.277 134.55 95.0398 135.758 86.6752 137C92.0698 139.644 95.1521 140.481 99.9752 137.893C100.443 137.641 100.865 137.31 101.241 136.934C101.857 136.318 102.597 135.839 103.412 135.53C109.145 133.361 112.95 131.981 119.389 126.784C121.583 125.013 123.145 122.591 124.037 119.916L126.354 112.963C126.898 111.332 127.175 109.623 127.175 107.904V94C129.443 95.1521 129.787 97.9139 129.675 104.5C131.861 100.184 131.278 95.8265 129.484 87.8583C129.361 87.31 128.658 87.1468 128.307 87.5857C127.917 88.0723 127.133 87.8127 127.111 87.1899L126.675 75L130.175 84L131.175 76L134.069 92.1222C134.469 94.3487 134.392 96.6347 133.843 98.8294L133.398 100.61C133.25 101.201 133.175 101.808 133.175 102.418V104.329C133.175 105.385 132.695 106.384 131.87 107.044C131.109 107.653 130.644 108.556 130.555 109.527C129.859 117.091 127.874 121.618 122.53 128.426C121.993 129.111 121.757 129.992 121.9 130.851C122.072 131.878 121.707 132.922 120.932 133.619L118.692 135.635C117.867 136.377 117.834 137.658 118.618 138.442C119.595 139.42 119.261 141.078 117.948 141.512C115.621 142.282 112.977 142.919 108.683 143.796C108.015 143.932 107.322 143.983 106.641 143.95C104.285 143.834 102.038 143.714 99.8957 143.587Z" fill="#8BD046"/>
<path d="M83.5301 102.468L83.297 102.817C83.2176 102.936 83.1752 103.076 83.1752 103.22C83.1752 103.783 83.79 104.131 84.2732 103.841L85.0684 103.364C85.4449 103.138 85.6752 102.731 85.6752 102.292V100.276C85.6752 99.4559 85.365 98.6659 84.8068 98.0648L81.5574 94.5654C80.7072 93.6498 79.1752 94.2514 79.1752 95.5009V97.8482C79.1752 98.6685 78.078 98.9428 77.692 98.219L77.2092 97.3137C76.8642 96.6668 75.8791 97.0194 76.0229 97.7383C76.1017 98.1324 75.8003 98.5 75.3984 98.5H74.4376C73.9613 98.5 73.5165 98.738 73.2523 99.1343L71.6509 101.537C71.0109 102.496 70.625 103.603 70.5292 104.753L70.4754 105.399C70.2824 107.714 70.9672 110.018 72.394 111.853C73.2376 112.937 74.312 113.821 75.5392 114.438L77.0183 115.183C82.3395 117.862 88.7085 117.363 93.5473 113.888L96.1752 112C101.205 106.327 102.056 102.086 101.675 93.5C104.893 99.9903 105.867 104.134 105.175 113C101.539 117.326 99.1077 119.757 94.4491 123.101C93.6078 123.705 92.6983 124.215 91.7426 124.614C85.3868 127.268 81.8937 127.711 76.85 126.541C76.7351 126.514 76.624 126.468 76.5236 126.407L66.9041 120.487C66.6101 120.306 66.8426 119.857 67.16 119.993C67.1701 119.998 67.175 120 67.1856 120.003C67.5184 120.1 75.7564 122.49 79.6752 122C83.6752 121.5 90.6228 120.577 92.1752 119C92.1752 119 84.1752 120 80.1752 120C78.0839 120 74.4891 118.36 71.5346 116.795C68.3266 115.095 66.0283 112.131 64.8408 108.701L62.1752 101C60.5326 102.561 59.9902 103.594 59.1752 105.5C58.6559 102.925 58.734 100.188 59.6752 92.5C55.5515 96.8806 53.6237 100.06 55.7337 106.971C56.7548 110.315 56.9052 113.839 57.0015 117.335C57.0859 120.397 58.2877 122.689 60.9892 125.178C62.3727 126.453 64.0941 127.287 65.8898 127.848L71.1752 129.5C68.4483 130.113 66.8218 130.066 63.6752 129C65.1329 130.832 66.0672 132.077 67.4059 133.93C67.7283 134.377 67.4087 135 66.8581 135C66.3349 135 66.0189 135.564 66.3451 135.973C69.6548 140.121 77.3707 141.784 92.1752 142.5C96.1975 142.717 107.675 144 105.675 144.5C104.432 144.811 100.675 144.349 98.0114 143.954C96.1322 143.676 93.0959 144.108 91.2141 143.848C89.0312 143.548 88.0373 142.954 85.8356 142.866L78.861 142.587C77.4106 142.529 75.9705 142.285 74.6024 141.8C72.012 140.881 70.0194 139.993 67.631 138.882C65.6795 137.973 63.9331 136.675 62.4932 135.075L56.2243 128.11C55.8748 127.722 55.3769 127.5 54.8544 127.5C54.1356 127.5 53.4823 127.082 53.1811 126.429L51.5944 122.992C50.9934 121.689 50.765 120.246 50.9345 118.822L52.837 102.841C53.0604 100.964 53.6403 99.1474 54.5455 97.4879L58.0267 91.1057C58.7249 89.8257 60.1125 89.0781 61.5655 89.1992L62.4416 89.2722C63.9586 89.3986 65.2967 88.2852 65.4482 86.7705C65.5803 85.4497 66.6249 84.405 67.9457 84.273L70.5939 84.0081C70.6465 84.0029 70.6957 83.9796 70.7331 83.9422C70.884 83.7913 70.7602 83.5354 70.5477 83.5551C61.6653 84.3781 58.9757 86.5191 56.2167 92.7336C55.8481 93.564 55.3445 94.3307 54.702 94.9732L50.6752 99C51.8125 94.9607 53.4384 91.933 57.6752 85.5C53.3378 88.0932 51.1653 89.9828 47.6752 94C50.1709 89.4028 52.0464 86.8747 56.6752 82.5C60.8818 79.1982 64.149 78.2221 71.4002 78.8734C72.2412 78.9489 73.0927 78.8807 73.9047 78.6487C75.3721 78.2295 76.9626 78.3022 78.2509 79.1203C80.6368 80.6356 83.0078 82.8738 86.0356 85.5613C87.1178 86.5219 88.0895 87.6069 88.8666 88.8274C90.9462 92.0936 92.1428 94.472 93.5963 98.2919C93.6442 98.4177 93.6141 98.5612 93.5189 98.6563C93.3515 98.8238 93.0682 98.7738 92.9656 98.5604C91.3288 95.1562 90.0884 93.2768 87.1752 90.5L89.0111 98.7613C89.6874 101.805 88.115 104.901 85.2587 106.151L83.3433 106.989C82.6105 107.31 81.7678 107.256 81.0819 106.844C80.2295 106.333 79.7666 105.36 79.9072 104.376L80.629 99.3236C80.6593 99.1113 80.7427 98.9101 80.8713 98.7385C81.4557 97.9594 82.6623 98.0959 83.0578 98.9858L83.7029 100.437C83.997 101.099 83.9318 101.865 83.5301 102.468Z" fill="#3D7E2F"/>
<path d="M105.675 95L109.675 103L110.675 100C111.079 101.086 111.229 101.726 111.175 103C111.583 105.365 112.507 102.74 114.13 98.1299L114.175 98C114.634 99.8404 114.669 100.802 114.675 102.5C116.117 100.416 116.627 98.9547 116.675 95.5C115.909 91.25 115.396 89.7094 114.175 90L113.175 93.5C111.219 88.5016 110.665 85.2743 109.682 79.5404L109.675 79.5C108.099 75.481 106.886 74.0096 104.675 71.5C99.6835 69.5749 98.039 68.295 95.1752 66C97.1836 68.8764 98.0892 70.3219 99.1752 72.5C99.1752 72.5 100.675 72.5 101.675 73C102.675 73.5 106.675 83 104.675 82C102.675 81 101.101 75.1586 98.6752 74C103.224 85.5312 105.531 88.6844 105.675 95Z" fill="#3A7F31"/>
<path d="M104.675 92C102.079 87.3579 100.416 84.8915 96.6752 81C98.0248 84.3791 100.004 86.6492 100.175 89.5C101.897 88.7702 102.237 89.5335 104.675 92Z" fill="#3B802E"/>
<path d="M122.002 108.605C119.486 117.232 116.575 121.184 110.684 127C110.389 127.292 109.928 127.335 109.583 127.105C109.117 126.794 109.059 126.13 109.459 125.738C115.014 120.288 117.823 116.356 120.339 108.13C120.51 107.573 121.169 107.329 121.654 107.652C121.965 107.86 122.106 108.247 122.002 108.605Z" fill="#3D7E2F"/>
<path d="M82.1752 144L60.1752 139.5C65.7453 146.773 72.5877 148.014 83.6752 151C81.9055 152.8 79.0198 152.704 74.6752 153C85.7888 156.341 91.0447 156.827 98.1752 154.5C93.2774 153.798 90.8565 153.275 91.1752 150.5C99.2786 149.04 103.992 148.267 107.175 145.5C99.0121 140.371 93.1688 140.746 82.1752 144Z" fill="#5BBE43"/>
<path d="M72.1752 83.5C61.0655 83.7074 57.0337 87.0717 53.1752 98L59.6752 89.5C59.6752 89.5 62.6752 90.5 64.6752 89C66.6752 87.5 66.1752 85.5 66.1752 85.5L72.1752 83.5Z" fill="#5CBF45"/>
<path d="M81.6752 53.5C82.6752 54 94.6752 54 101.175 62.5C105.675 51.5 82.6752 45 81.1752 46C79.6752 47 80.1752 49 80.1752 49C80.1752 49 69.1752 46.5 68.1752 48.5C67.1752 50.5 68.6752 51.5 68.6752 51.5C68.6752 51.5 67.1752 52.5 67.6752 53C68.1752 53.5 76.2894 55.1683 81.6752 54.5C81.6752 54.5 80.6752 53 81.6752 53.5Z" fill="#63C447"/>
<path d="M81.6752 53.5C82.6752 54 94.6752 54 101.175 62.5C105.675 51.5 82.6752 45 81.1752 46C79.6752 47 80.1752 49 80.1752 49C80.1752 49 69.1752 46.5 68.1752 48.5C67.1752 50.5 68.6752 51.5 68.6752 51.5C68.6752 51.5 67.1752 52.5 67.6752 53C68.1752 53.5 76.2894 55.1683 81.6752 54.5C81.6752 54.5 80.6752 53 81.6752 53.5Z" fill="url(#paint5_linear_106_583)"/>
<g filter="url(#filter10_f_106_583)">
<path d="M89.3467 96.3075C90.2307 105.597 84.416 108.78 80.7587 107.487C79.8863 107.179 78.7479 107.355 78.3341 108.182C77.9794 108.892 78.3167 109.729 79.095 109.882C81.0567 110.266 84.9007 110.546 89.6752 108.5C94.6332 106.375 92.9882 99.5922 90.9535 95.5617C90.2221 94.113 89.1929 94.692 89.3467 96.3075Z" fill="#71C341"/>
</g>
<path d="M77.6752 85.5C81.6752 87.5 81.6752 89 81.1752 89.5" stroke="#5CBF45"/>
<path d="M69.5952 104.23L69.98 104.326C70.3886 104.428 70.6752 104.795 70.6752 105.217C70.6752 105.963 71.519 106.397 72.1265 105.963L72.9677 105.363C73.63 104.889 73.7732 103.964 73.2849 103.313L73.1675 103.156C72.8576 102.743 72.3713 102.5 71.8548 102.5H69.8081C69.4302 102.5 69.0946 102.742 68.9751 103.1C68.8133 103.586 69.0989 104.106 69.5952 104.23Z" fill="#5DC246"/>
<path d="M76.6752 108.5L76.1752 113.5C71.2703 112.959 70.6752 108 71.1752 106.5C71.6752 105 74.0282 104.531 75.6752 105C74.2647 105.797 73.4813 106.341 72.1752 108.5C72.9411 110.055 73.4195 110.747 74.6752 110.5V107.5C74.6752 107.5 77.6752 105 77.6752 103C77.6752 101 75.6752 100.5 75.6752 100.5L76.1752 96.5C78.2998 98.6768 79.1207 100.264 80.1752 103.5L76.6752 108.5Z" fill="#C0DE7F"/>
<path d="M73.6809 90.502L80.2564 92.8504C80.3569 92.8863 80.4317 92.7682 80.3526 92.6965C79.5125 91.9343 77.1827 90 75.1752 90C72.7789 90 73.5983 90.4594 73.6704 90.4975C73.6739 90.4994 73.6771 90.5007 73.6809 90.502Z" fill="#72BE56"/>
<path d="M62.1752 96C63.3752 93.2 66.0086 92.1667 67.1752 92" stroke="#5BA541"/>
<path d="M74.1752 57.5C63.8841 59.7722 59.3513 62.2284 51.6752 67L56.6752 61.5L48.6752 62C57.335 57.6457 63.1927 56.86 74.1752 57.5Z" fill="#B8DB76"/>
<path d="M77.1752 56.5C80.7752 57.3 82.6752 59.5 83.1752 60.5" stroke="#77C548"/>
<path d="M44.6752 72.5C33.2892 90.1821 29.6954 100.853 31.1752 122.5C26.7217 107.891 26.9811 99.7589 37.6462 80.594C34.6179 90.4338 29.3215 94.6111 29.6752 107C31.1377 93.3857 35.3118 85.8605 44.6752 72.5Z" fill="#BBDB79"/>
<ellipse cx="45.1752" cy="137" rx="2" ry="1.5" fill="white"/>
<g filter="url(#filter11_f_106_583)">
<path d="M31.1752 90.5C25.7887 100.401 23.6614 106.19 21.6752 117C20.3666 111.335 19.8882 108.091 20.1752 102V95.5C22.0163 90.7097 22.7292 87.5923 27.6752 87C28.9371 81.3606 30.6305 77.8793 34.1752 71.5C38.4981 65.5817 40.9056 63.121 45.1752 60C38.3845 68.1297 35.6305 72.1862 32.6752 78.5L36.1752 75.5C32.021 81.7642 29.9837 86.292 26.6752 95.5L31.1752 90.5Z" fill="#61B940"/>
</g>
<path d="M57.6752 54L38.6752 59C38.6752 59 42.6752 53 48.1752 52C53.6752 51 57.6752 54 57.6752 54Z" fill="#7BC543"/>
<path d="M50.6752 48.5C46.6752 48 45.1752 46 45.1752 46C45.1752 46 49.6752 44.5 54.6752 44.5C59.6752 44.5 61.6752 48.5 61.6752 48.5C61.6752 48.5 54.6752 49 50.6752 48.5Z" fill="#7BC543"/>
<path d="M58.6752 50.5C57.6752 50 52.1752 50 52.1752 50L52.6752 50.5C53.6752 51.5 58.1752 51.5 58.1752 51.5C58.1752 51.5 59.6752 51 58.6752 50.5Z" fill="#7BC543"/>
<g filter="url(#filter12_f_106_583)">
<path d="M119.175 72.5L109.175 52.5M125.175 69.5L116.175 57.5" stroke="#70B248"/>
</g>
<path d="M123.175 76C122.175 75.5 122.175 75 121.675 75.5C121.175 76 122.175 93.5 122.675 94.5C123.175 95.5 123.675 94.5 124.175 94C124.675 93.5 124.175 76.5 123.175 76Z" fill="#8BD046"/>
<path d="M79.1752 68.5C84.2924 71.4416 86.9129 73.535 91.1752 78" stroke="#D1E59F"/>
<ellipse cx="110.175" cy="159.887" rx="0.884542" ry="0.770535" transform="rotate(114.19 110.175 159.887)" fill="white" fill-opacity="0.6"/>
<defs>
<filter id="filter0_f_106_583" x="13.6752" y="0.5" width="160" height="161.5" filterUnits="userSpaceOnUse" color-interpolation-filters="sRGB">
<feFlood flood-opacity="0" result="BackgroundImageFix"/>
<feBlend mode="normal" in="SourceGraphic" in2="BackgroundImageFix" result="shape"/>
<feGaussianBlur stdDeviation="12" result="effect1_foregroundBlur_106_583"/>
</filter>
<filter id="filter1_f_106_583" x="70.5782" y="109.311" width="90.097" height="71.1166" filterUnits="userSpaceOnUse" color-interpolation-filters="sRGB">
<feFlood flood-opacity="0" result="BackgroundImageFix"/>
<feBlend mode="normal" in="SourceGraphic" in2="BackgroundImageFix" result="shape"/>
<feGaussianBlur stdDeviation="1" result="effect1_foregroundBlur_106_583"/>
</filter>
<filter id="filter2_f_106_583" x="69.1752" y="21" width="82.5" height="75.5" filterUnits="userSpaceOnUse" color-interpolation-filters="sRGB">
<feFlood flood-opacity="0" result="BackgroundImageFix"/>
<feBlend mode="normal" in="SourceGraphic" in2="BackgroundImageFix" result="shape"/>
<feGaussianBlur stdDeviation="12" result="effect1_foregroundBlur_106_583"/>
</filter>
<filter id="filter3_f_106_583" x="47.3128" y="13.2292" width="111.797" height="153.172" filterUnits="userSpaceOnUse" color-interpolation-filters="sRGB">
<feFlood flood-opacity="0" result="BackgroundImageFix"/>
<feBlend mode="normal" in="SourceGraphic" in2="BackgroundImageFix" result="shape"/>
<feGaussianBlur stdDeviation="2" result="effect1_foregroundBlur_106_583"/>
</filter>
<filter id="filter4_f_106_583" x="24.3217" y="121.737" width="106.316" height="57.7172" filterUnits="userSpaceOnUse" color-interpolation-filters="sRGB">
<feFlood flood-opacity="0" result="BackgroundImageFix"/>
<feBlend mode="normal" in="SourceGraphic" in2="BackgroundImageFix" result="shape"/>
<feGaussianBlur stdDeviation="1.5" result="effect1_foregroundBlur_106_583"/>
</filter>
<filter id="filter5_f_106_583" x="13.7294" y="40.5705" width="59.6489" height="83.0075" filterUnits="userSpaceOnUse" color-interpolation-filters="sRGB">
<feFlood flood-opacity="0" result="BackgroundImageFix"/>
<feBlend mode="normal" in="SourceGraphic" in2="BackgroundImageFix" result="shape"/>
<feGaussianBlur stdDeviation="1" result="effect1_foregroundBlur_106_583"/>
</filter>
<filter id="filter6_f_106_583" x="69.043" y="98.5" width="73.1322" height="75.5" filterUnits="userSpaceOnUse" color-interpolation-filters="sRGB">
<feFlood flood-opacity="0" result="BackgroundImageFix"/>
<feBlend mode="normal" in="SourceGraphic" in2="BackgroundImageFix" result="shape"/>
<feGaussianBlur stdDeviation="2" result="effect1_foregroundBlur_106_583"/>
</filter>
<filter id="filter7_f_106_583" x="23.6752" y="53.5" width="22.5" height="25.5" filterUnits="userSpaceOnUse" color-interpolation-filters="sRGB">
<feFlood flood-opacity="0" result="BackgroundImageFix"/>
<feBlend mode="normal" in="SourceGraphic" in2="BackgroundImageFix" result="shape"/>
<feGaussianBlur stdDeviation="1.5" result="effect1_foregroundBlur_106_583"/>
</filter>
<filter id="filter8_f_106_583" x="5.7146" y="79.6465" width="15.8142" height="32.6016" filterUnits="userSpaceOnUse" color-interpolation-filters="sRGB">
<feFlood flood-opacity="0" result="BackgroundImageFix"/>
<feBlend mode="normal" in="SourceGraphic" in2="BackgroundImageFix" result="shape"/>
<feGaussianBlur stdDeviation="0.75" result="effect1_foregroundBlur_106_583"/>
</filter>
<filter id="filter9_f_106_583" x="9.17557" y="88.4501" width="8.98502" height="35.7204" filterUnits="userSpaceOnUse" color-interpolation-filters="sRGB">
<feFlood flood-opacity="0" result="BackgroundImageFix"/>
<feBlend mode="normal" in="SourceGraphic" in2="BackgroundImageFix" result="shape"/>
<feGaussianBlur stdDeviation="1" result="effect1_foregroundBlur_106_583"/>
</filter>
<filter id="filter10_f_106_583" x="76.1932" y="92.733" width="18.7452" height="19.4201" filterUnits="userSpaceOnUse" color-interpolation-filters="sRGB">
<feFlood flood-opacity="0" result="BackgroundImageFix"/>
<feBlend mode="normal" in="SourceGraphic" in2="BackgroundImageFix" result="shape"/>
<feGaussianBlur stdDeviation="1" result="effect1_foregroundBlur_106_583"/>
</filter>
<filter id="filter11_f_106_583" x="17.0949" y="57" width="31.0803" height="63" filterUnits="userSpaceOnUse" color-interpolation-filters="sRGB">
<feFlood flood-opacity="0" result="BackgroundImageFix"/>
<feBlend mode="normal" in="SourceGraphic" in2="BackgroundImageFix" result="shape"/>
<feGaussianBlur stdDeviation="1.5" result="effect1_foregroundBlur_106_583"/>
</filter>
<filter id="filter12_f_106_583" x="106.728" y="50.2764" width="20.8472" height="24.4472" filterUnits="userSpaceOnUse" color-interpolation-filters="sRGB">
<feFlood flood-opacity="0" result="BackgroundImageFix"/>
<feBlend mode="normal" in="SourceGraphic" in2="BackgroundImageFix" result="shape"/>
<feGaussianBlur stdDeviation="1" result="effect1_foregroundBlur_106_583"/>
</filter>
<linearGradient id="paint0_linear_106_583" x1="167.675" y1="130.5" x2="55.1752" y2="28.5" gradientUnits="userSpaceOnUse">
<stop stop-color="#BBD782"/>
<stop offset="1" stop-color="#8FCF47"/>
</linearGradient>
<linearGradient id="paint1_linear_106_583" x1="95.1752" y1="171" x2="160.175" y2="129.5" gradientUnits="userSpaceOnUse">
<stop stop-color="#75C548"/>
<stop offset="1" stop-color="#C9E44E"/>
</linearGradient>
<linearGradient id="paint2_linear_106_583" x1="83.1752" y1="17.5" x2="146.175" y2="111" gradientUnits="userSpaceOnUse">
<stop offset="0.0136226" stop-color="#8ACC46"/>
<stop offset="1" stop-color="#C9E44E"/>
</linearGradient>
<radialGradient id="paint3_radial_106_583" cx="0" cy="0" r="1" gradientUnits="userSpaceOnUse" gradientTransform="translate(43.6752 82) rotate(90) scale(39.5 27.5)">
<stop offset="0.447917" stop-color="#30A201"/>
<stop offset="1" stop-color="#B7D974"/>
</radialGradient>
<linearGradient id="paint4_linear_106_583" x1="100.175" y1="156.5" x2="136.675" y2="119" gradientUnits="userSpaceOnUse">
<stop stop-color="#A3D84A"/>
<stop offset="1" stop-color="#6AC64C"/>
</linearGradient>
<linearGradient id="paint5_linear_106_583" x1="82.6752" y1="47.5" x2="102.175" y2="59.5" gradientUnits="userSpaceOnUse">
<stop stop-color="#63C447"/>
<stop offset="1" stop-color="#8BD046"/>
</linearGradient>
</defs>
</svg>
